<svg xmlns="http://www.w3.org/2000/svg" viewBox="0 0 200 200" fill="none">
  <circle cx="100" cy="100" r="95" fill="#2E8B57" stroke="#1a5c38" stroke-width="3"/>
  <circle cx="100" cy="100" r="75" fill="#3CB371"/>
  <rect x="50" y="60" width="100" height="70" rx="8" fill="white" opacity="0.95"/>
  <circle cx="65" cy="75" r="5" fill="#FF6B6B"/>
  <circle cx="80" cy="75" r="5" fill="#FFD93D"/>
  <circle cx="95" cy="75" r="5" fill="#6BCB77"/>
  <rect x="62" y="88" width="45" height="6" rx="3" fill="#4A90A4"/>
  <rect x="62" y="100" width="35" height="6" rx="3" fill="#7FCDCD"/>
  <rect x="105" y="88" width="30" height="6" rx="3" fill="#C06C84"/>
  <rect x="105" y="100" width="25" height="6" rx="3" fill="#F67280"/>
  <rect x="62" y="112" width="55" height="6" rx="3" fill="#355C7D"/>
  <polygon points="130,145 130,165 150,155" fill="white"/>
  <circle cx="140" cy="155" r="15" fill="#FF6B6B" opacity="0.9"/>
  <polygon points="135,150 135,160 143,155" fill="white"/>
</svg>
